<svg xmlns="http://www.w3.org/2000/svg" width="34" height="34.31" viewBox="0 0 34 34.31">
  
  <path class="cls-1" d="M174.253,1723.31c-0.008-.04-0.023-0.08-0.034-0.12a2,2,0,0,0-.091-0.29,0.989,0.989,0,0,0-.059-0.13c-0.042-.09-0.088-0.17-0.141-0.26-0.024-.03-0.05-0.07-0.077-0.11a1.9,1.9,0,0,0-.19-0.22l-0.09-.09a1.426,1.426,0,0,0-.233-0.19,0.686,0.686,0,0,0-.106-0.08,2.4,2.4,0,0,0-.26-0.14l-0.128-.06a2.49,2.49,0,0,0-.277-0.09c-0.049-.01-0.1-0.03-0.147-0.04h-0.029a0.055,0.055,0,0,0-.04,0,2.276,2.276,0,0,0-.37-0.04,0.55,0.55,0,1,0,0,1.1,0.843,0.843,0,0,1,.225.02,1.067,1.067,0,0,1,.351.13l0.062,0.03a1.342,1.342,0,0,1,.264.22l0.05,0.06a1.214,1.214,0,0,1,.176.31,0.22,0.22,0,0,1,.017.05,1.187,1.187,0,0,1,.068.38v3.03H150.938a2.129,2.129,0,0,1-2.134-2.12,2.105,2.105,0,0,1,1.51-2.02,0.554,0.554,0,0,0,.367-0.69h0a0.557,0.557,0,0,0-.685-0.37,3.2,3.2,0,0,0-2.294,3.05v13.69a2.31,2.31,0,0,0,2.317,2.3h21.963a2.31,2.31,0,0,0,2.317-2.3v-14.57A2.264,2.264,0,0,0,174.253,1723.31Zm-2.272,16.22H150.018a1.218,1.218,0,0,1-1.214-1.21v-11.26a3.236,3.236,0,0,0,2.134.82h22.256v2.61h-3.019a2.955,2.955,0,1,0,0,5.91h3.019v1.92A1.217,1.217,0,0,1,171.981,1739.53Zm1.213-4.22h-3.019a1.865,1.865,0,1,1,0-3.73h3.019v3.73Zm-22.774-10.65a0.547,0.547,0,0,0,.552.55H171.5a0.545,0.545,0,1,0,0-1.09h-1.087v-13.33a0.553,0.553,0,0,0-.552-0.55H156.406a0.553,0.553,0,0,0-.551.55v13.33h-1.03v-14.75h12.9a0.545,0.545,0,1,0,0-1.09H154.273a0.545,0.545,0,0,0-.552.54v15.3h-1.03v-16.71h12.9a0.55,0.55,0,1,0,0-1.1H152.139a0.553,0.553,0,0,0-.552.55v17.26h-0.615A0.545,0.545,0,0,0,150.42,1724.66Zm17.075-.54h-8.724v-8.83a5.148,5.148,0,0,0,2.046-1.94h4.632a5.148,5.148,0,0,0,2.046,1.94v8.83Zm-10.537-12.78h12.35v12.78H168.6v-9.18a0.557,0.557,0,0,0-.332-0.5,4.007,4.007,0,0,1-2-1.88,0.542,0.542,0,0,0-.494-0.3h-5.29a0.54,0.54,0,0,0-.493.3,4.011,4.011,0,0,1-2,1.88,0.556,0.556,0,0,0-.332.5v9.18h-0.71v-12.78Zm13.576,21.15a0.955,0.955,0,1,1-.966.96A0.963,0.963,0,0,1,170.534,1732.49Z" transform="translate(-144 -1706.31)"/>
  
</svg>
