<svg xmlns="http://www.w3.org/2000/svg" width="33" height="32.91" viewBox="0 0 33 32.91">
 
  <path class="cls-1" d="M176.538,1640.82h-6.316a9.281,9.281,0,1,0-13.626-9.08h-3.862a0.55,0.55,0,1,0,0,1.1h3.827a9.291,9.291,0,0,0,4.884,7.98H147.9a0.672,0.672,0,0,1-.673-0.67v-2.09a0.681,0.681,0,0,1,.673-0.68h7.015a0.548,0.548,0,0,0,.553-0.55,0.554,0.554,0,0,0-.553-0.55h-5.788a0.674,0.674,0,0,1-.674-0.68v-2.08a0.681,0.681,0,0,1,.674-0.68,0.55,0.55,0,1,0,0-1.1H147.9a0.681,0.681,0,0,1-.673-0.68v-2.08a0.674,0.674,0,0,1,.673-0.68h7.858a0.554,0.554,0,0,0,.553-0.55,0.547,0.547,0,0,0-.553-0.55h-9.085a0.681,0.681,0,0,1-.673-0.68v-2.09a0.672,0.672,0,0,1,.673-0.67H147.9a0.555,0.555,0,0,0,0-1.11,0.672,0.672,0,0,1-.673-0.67v-2.09a0.672,0.672,0,0,1,.673-0.67H159.1a0.555,0.555,0,0,0,0-1.11h-9.966a0.672,0.672,0,0,1-.674-0.67v-2.09a0.672,0.672,0,0,1,.674-0.67,0.555,0.555,0,0,0,0-1.11H147.9a0.672,0.672,0,0,1-.673-0.67v-2.09a0.672,0.672,0,0,1,.673-0.67h14.183a0.672,0.672,0,0,1,.673.67v2.09a0.672,0.672,0,0,1-.673.67h-9.43a0.555,0.555,0,0,0,0,1.11h10.657a0.672,0.672,0,0,1,.673.67v2.09a0.672,0.672,0,0,1-.673.67h-1.227a0.555,0.555,0,0,0,0,1.11,0.672,0.672,0,0,1,.673.67v1.61a0.554,0.554,0,0,0,1.107,0v-1.61a1.776,1.776,0,0,1,1.226-2.45v-2.09a1.778,1.778,0,0,0-1.378-1.73,1.752,1.752,0,0,0,.152-0.72v-2.09a1.783,1.783,0,0,0-1.78-1.78H147.9a1.783,1.783,0,0,0-1.78,1.78v2.09a1.779,1.779,0,0,0,1.378,1.73,1.8,1.8,0,0,0-.151.72v2.09a1.779,1.779,0,0,1-1.227,2.45v2.09a1.752,1.752,0,0,0,.152.72,1.778,1.778,0,0,0-1.378,1.73v2.09a1.79,1.79,0,0,0,1.378,1.74,1.752,1.752,0,0,0-.152.72v2.08a1.791,1.791,0,0,0,1.378,1.74,1.768,1.768,0,0,0-.151.72v2.08a1.768,1.768,0,0,0,.151.72,1.791,1.791,0,0,0-1.378,1.74v2.09a1.783,1.783,0,0,0,1.78,1.78h28.634A0.555,0.555,0,0,0,176.538,1640.82Zm-18.881-8.18a8.177,8.177,0,1,1,8.176,8.18A8.179,8.179,0,0,1,157.657,1632.64Zm1.977-9.99a0.555,0.555,0,0,1,0,1.11h-8.51a0.555,0.555,0,0,1,0-1.11h8.51Z" transform="translate(-144.5 -1609.03)"/>
  
</svg>
