<svg xmlns="http://www.w3.org/2000/svg" width="25px" height="25px" viewBox="0 0 11.5 9.12">

<path d="M2.59,1.86v5.7c0,.17,0,.24.22.23s.48-.07.59,0,0,.4.05.61,0,.37,0,.55,0,.14-.13.14H.14C0,9.12,0,9.08,0,9c0-.35,0-.7,0-1,0-.12,0-.16.15-.15H.4A.45.45,0,0,0,.86,7.3V1.85a.46.46,0,0,0-.52-.5C0,1.34,0,1.34,0,1S0,.45,0,.16C0,.05,0,0,.15,0h4c.17,0,.17.11.2.22.44,1.65.88,3.31,1.33,5a.26.26,0,0,0,0,.1.33.33,0,0,0,.09-.19L7.15.18A.21.21,0,0,1,7.39,0h3.9c.17,0,.22,0,.21.21a8.81,8.81,0,0,0,0,.89c0,.2,0,.28-.24.25a.57.57,0,0,0-.34,0,.49.49,0,0,0-.28.48v5.4a.46.46,0,0,0,.49.51c.37,0,.37,0,.37.38s0,.51,0,.76-.05.2-.21.2H7.59c-.18,0-.23-.06-.22-.23s0-.61,0-.91,0-.21.19-.2h.53c.13,0,.17,0,.16-.17a.34.34,0,0,1,0-.1V1.85c-.09,0-.07.08-.08.12q-1,3.45-1.91,6.9c0,.2-.13.26-.33.25-.37,0-.75,0-1.13,0-.14,0-.19,0-.22-.18L2.81,2.46l-.16-.61Z" fill="#37c0fd"/>

</svg>