<svg xmlns="http://www.w3.org/2000/svg" width="25px" height="25px" viewBox="0 0 8.11 6.79">

	<path d="M3.06,6.22c0-.57.08-1.11.11-1.66a.23.23,0,0,1,.11-.17L6.54,1.44a0,0,0,0,0,0,0s.16-.09.1-.17-.16,0-.23,0l-1.68,1L2.23,3.91a.23.23,0,0,1-.21,0L.37,3.42a.85.85,0,0,1-.26-.11C0,3.21,0,3.09.08,3a.92.92,0,0,1,.3-.18L4,1.42,7.47.08c.17-.07.34-.14.5,0a.48.48,0,0,1,.11.51c-.27,1.29-.54,2.59-.82,3.88L6.87,6.31c-.1.51-.37.62-.79.31L4.42,5.4c-.08-.06-.12-.06-.2,0-.26.27-.54.53-.82.79a.53.53,0,0,1-.14.12.2.2,0,0,1-.19,0S3.07,6.25,3.06,6.22Z" fill="#37c0fd"/>

</svg>