<svg xmlns="http://www.w3.org/2000/svg" width="25px" height="25px" viewBox="0 0 9.53 7.87">

	<path d="M8.65,1.2A4,4,0,0,0,9.53.94a3.32,3.32,0,0,1-.79.87.47.47,0,0,0-.19.4A5.48,5.48,0,0,1,5.18,7.39,5.43,5.43,0,0,1,0,7c0-.08.06,0,.1,0a4,4,0,0,0,2.72-.82,2.09,2.09,0,0,1-1-.3,2,2,0,0,1-.8-.93c-.06-.12,0-.17.1-.14a1.38,1.38,0,0,0,.64,0,2,2,0,0,1-1.49-2A2,2,0,0,0,1.12,3c0-.06-.06-.07-.09-.1A2,2,0,0,1,.51.52C.57.4.6.37.7.49A5.55,5.55,0,0,0,3.15,2.15a6.32,6.32,0,0,0,1.36.28c.17,0,.12-.09.11-.17A1.94,1.94,0,0,1,5.83.16,1.9,1.9,0,0,1,7.92.53.24.24,0,0,0,8.16.6,4.18,4.18,0,0,0,9.27.15a2,2,0,0,1-.75,1C8.54,1.23,8.56,1.23,8.65,1.2Z" fill="#37c0fd"/>

</svg>