<svg xmlns="http://www.w3.org/2000/svg" width="30" height="30" viewBox="0 0 30 30">
  
  <path class="cls-1" d="M47.162,222.787H38.473a0.469,0.469,0,1,1,0-.937h9.162a0.471,0.471,0,0,1,.472.469v0.712l2-2.022-2-2.022V219.7a0.471,0.471,0,0,1-.472.469H38.473a0.469,0.469,0,1,1,0-.938h8.689v-1.389a0.473,0.473,0,0,1,.809-0.329l3.135,3.168a0.466,0.466,0,0,1,0,.657l-3.135,3.168a0.476,0.476,0,0,1-.337.14,0.483,0.483,0,0,1-.178-0.035,0.469,0.469,0,0,1-.293-0.434v-1.39Zm20.365,5.99H58.366a0.47,0.47,0,0,0-.472.468v0.713l-2-2.022,2-2.021v0.712a0.471,0.471,0,0,0,.472.469h9.162a0.469,0.469,0,1,0,0-.938H58.838v-1.39a0.473,0.473,0,0,0-.809-0.328l-3.135,3.168a0.466,0.466,0,0,0,0,.657l3.135,3.168a0.476,0.476,0,0,0,.337.14,0.484,0.484,0,0,0,.179-0.035,0.469,0.469,0,0,0,.293-0.434v-1.39h8.689A0.469,0.469,0,1,0,67.527,228.777Zm-5.171,2.031a0.467,0.467,0,0,1,.1.656A11.794,11.794,0,0,1,51.72,236.1c-0.085-.009-0.169-0.027-0.254-0.038-0.338-.044-0.673-0.1-1-0.17-0.03-.006-0.061-0.008-0.091-0.015a0.363,0.363,0,0,1-.053-0.022,11.769,11.769,0,0,1-8.786-8.724,0.452,0.452,0,0,1-.022-0.054c-0.007-.03-0.009-0.061-0.016-0.091-0.072-.327-0.126-0.66-0.171-1-0.011-.084-0.029-0.167-0.038-0.251a11.67,11.67,0,0,1-.073-1.27A0.471,0.471,0,0,1,41.686,224h4.48a0.469,0.469,0,1,1,0,.937H42.183A10.747,10.747,0,0,0,42.4,226.7c0,0.006,0,.011,0,0.016a12.778,12.778,0,0,0,5.027,2.112,26.558,26.558,0,0,1-.314-3.072,0.472,0.472,0,0,1,.943-0.042,25.432,25.432,0,0,0,.368,3.31,26.5,26.5,0,0,0,4.1.377v-4.462H49.661a0.469,0.469,0,1,1,0-.937h2.867v-4.452c-0.5.008-.992,0.017-1.479,0.05a0.469,0.469,0,1,1-.066-0.935c0.509-.035,1.028-0.045,1.545-0.053v-4.88c-0.238.01-.477,0.015-0.712,0.04s-0.462.069-.693,0.11c-0.13.022-.26,0.04-0.388,0.067a10.71,10.71,0,0,0-1.635,3.235,0.472,0.472,0,0,1-.448.321,0.478,0.478,0,0,1-.148-0.023,0.469,0.469,0,0,1-.3-0.593,13.261,13.261,0,0,1,1.153-2.563,10.773,10.773,0,0,0-5.052,3.714,0.475,0.475,0,0,1-.661.095,0.467,0.467,0,0,1-.1-0.656A11.718,11.718,0,0,1,53,212.769a11.987,11.987,0,0,1,1.278.072c0.089,0.01.177,0.029,0.265,0.04,0.334,0.044.665,0.1,0.989,0.167,0.031,0.007.063,0.009,0.094,0.016a0.556,0.556,0,0,1,.056.023,11.768,11.768,0,0,1,8.784,8.725,0.518,0.518,0,0,1,.021.052c0.007,0.03.009,0.06,0.015,0.089,0.073,0.328.127,0.663,0.171,1,0.011,0.084.029,0.166,0.038,0.249a11.674,11.674,0,0,1,.073,1.271,0.47,0.47,0,0,1-.472.468h-4.48a0.469,0.469,0,1,1,0-.937h3.983c-0.01-.215-0.012-0.429-0.034-0.644,0-.042-0.014-0.083-0.019-0.125-0.038-.324-0.088-0.648-0.155-0.97,0-.013-0.007-0.026-0.01-0.039a12.758,12.758,0,0,0-5.024-2.11,26.558,26.558,0,0,1,.314,3.072,0.471,0.471,0,0,1-.451.489H58.416a0.47,0.47,0,0,1-.471-0.447,25.466,25.466,0,0,0-.368-3.311,26.624,26.624,0,0,0-4.1-.377V224h2.867a0.469,0.469,0,1,1,0,.937H53.472v4.453c0.5-.008.993-0.017,1.479-0.051a0.469,0.469,0,1,1,.066.935c-0.508.035-1.027,0.045-1.545,0.053v4.881c0.2-.009.4-0.015,0.59-0.034,0.1-.01.193-0.013,0.289-0.025,0.309-.037.612-0.1,0.914-0.159a10.7,10.7,0,0,0,1.635-3.235,0.472,0.472,0,0,1,.9.3,13.194,13.194,0,0,1-1.153,2.563A10.77,10.77,0,0,0,61.7,230.9,0.475,0.475,0,0,1,62.356,230.808Zm-4.97-11.868a12.619,12.619,0,0,0-2.119-4.986c-0.088-.019-0.177-0.034-0.266-0.051-0.233-.043-0.467-0.082-0.7-0.11-0.148-.018-0.3-0.03-0.446-0.041-0.127-.011-0.254-0.015-0.381-0.021v4.874A27.63,27.63,0,0,1,57.386,218.94Zm-0.72-4.6a15.927,15.927,0,0,1,1.723,4.781,16.191,16.191,0,0,1,4.8,1.7A10.846,10.846,0,0,0,56.666,214.344Zm-8.051,15.661A12.6,12.6,0,0,0,50.739,235l0.014,0a10.979,10.979,0,0,0,1.775.211v-4.873A27.477,27.477,0,0,1,48.614,230.005Zm0.713,4.584a15.947,15.947,0,0,1-1.716-4.768,16.217,16.217,0,0,1-4.8-1.7A10.837,10.837,0,0,0,49.328,234.589Z" transform="translate(-38 -209.484)"/>
  
</svg>
