<svg xmlns="http://www.w3.org/2000/svg" width="30" height="30" viewBox="0 0 30 30">
  
  <path class="cls-1" d="M53.213,286.071a7.31,7.31,0,1,1,7.252-7.31A7.289,7.289,0,0,1,53.213,286.071Zm0-13.7a6.387,6.387,0,1,0,6.337,6.387A6.369,6.369,0,0,0,53.213,272.374Zm0,11.892a5.505,5.505,0,1,1,5.462-5.5A5.49,5.49,0,0,1,53.213,284.266Zm0-10.086a4.581,4.581,0,1,0,4.546,4.581A4.569,4.569,0,0,0,53.213,274.18Zm0-3.489a7.31,7.31,0,1,1,7.252-7.31A7.289,7.289,0,0,1,53.213,270.691Zm0-13.7a6.387,6.387,0,1,0,6.337,6.386A6.369,6.369,0,0,0,53.213,257Zm0,11.933a5.547,5.547,0,1,1,5.5-5.547A5.532,5.532,0,0,1,53.213,268.928Zm0-10.171a4.624,4.624,0,1,0,4.588,4.624A4.611,4.611,0,0,0,53.213,258.757ZM65.865,280.5V261.645a0.459,0.459,0,0,0-.458-0.461H61.855a0.462,0.462,0,0,0,0,.923h3.095V280.5A0.458,0.458,0,1,0,65.865,280.5ZM63.6,262.89a0.463,0.463,0,0,0-.108-0.643l-0.841-.6,0.841-.6A0.463,0.463,0,0,0,63.6,260.4a0.455,0.455,0,0,0-.638-0.109l-1.367.978a0.464,0.464,0,0,0,0,.753L62.957,263A0.456,0.456,0,0,0,63.6,262.89Zm-0.271,20.344v-16.5a0.458,0.458,0,1,0-.916,0v16.5A0.458,0.458,0,1,0,63.325,283.234ZM45.03,280.5a0.46,0.46,0,0,0-.458-0.462H41.478v-18.39a0.458,0.458,0,1,0-.916,0V280.5a0.459,0.459,0,0,0,.458.461h3.552A0.459,0.459,0,0,0,45.03,280.5Zm-1.56,1.354,1.367-.978a0.464,0.464,0,0,0,0-.753l-1.367-.978a0.456,0.456,0,0,0-.639.11,0.463,0.463,0,0,0,.108.643l0.841,0.6-0.841.6a0.463,0.463,0,0,0-.108.643,0.457,0.457,0,0,0,.374.195A0.451,0.451,0,0,0,43.47,281.851Zm0.548-6.44v-16.5a0.458,0.458,0,1,0-.916,0v16.5A0.458,0.458,0,1,0,44.018,275.411Z" transform="translate(-38.219 -256.062)"/>
  
</svg>
