<svg xmlns="http://www.w3.org/2000/svg" width="32" height="32" viewBox="0 0 32 32">
  
  <path class="cls-1" d="M62.013,363.438a10.521,10.521,0,0,0-19.483,5.533,0.524,0.524,0,1,1-1.048,0,11.569,11.569,0,0,1,21.423-6.085A0.524,0.524,0,1,1,62.013,363.438Zm-8.959,17.124a11.594,11.594,0,0,0,11.572-11.591,0.524,0.524,0,1,0-1.048,0A10.522,10.522,0,0,1,44.1,374.505a0.524,0.524,0,1,0-.892.552A11.5,11.5,0,0,0,53.054,380.562Zm0-25.545A13.812,13.812,0,0,1,64.28,360.7l-1.017-.233a0.525,0.525,0,0,0-.234,1.023l2.3,0.527c0.01,0,.021,0,0.031,0l0.013,0a0.576,0.576,0,0,0,.071,0h0a0.5,0.5,0,0,0,.214-0.052,0.565,0.565,0,0,0,.054-0.032,0.5,0.5,0,0,0,.125-0.107c0.009-.011.022-0.015,0.031-0.026s0.01-.022.017-0.032a0.569,0.569,0,0,0,.029-0.057,0.506,0.506,0,0,0,.037-0.112,0.359,0.359,0,0,0,.012-0.035l0.341-2.452a0.524,0.524,0,1,0-1.038-.145l-0.152,1.095a14.846,14.846,0,0,0-12.059-6.111A0.525,0.525,0,0,0,53.054,355.017Zm14.98,14.049a0.524,0.524,0,1,0-1.048,0A13.851,13.851,0,0,1,61.31,380.31l0.233-1.019a0.524,0.524,0,1,0-1.022-.235L60,381.359c0,0.009,0,.018,0,0.026s-0.005.012-.006,0.018,0,0.023,0,.036a0.511,0.511,0,0,0,.009.139,0.5,0.5,0,0,0,.011.053,0.516,0.516,0,0,0,.078.159v0a0.516,0.516,0,0,0,.111.108,0.232,0.232,0,0,0,.023.012,0.516,0.516,0,0,0,.055.028,0.465,0.465,0,0,0,.124.043c0.012,0,.021.01,0.033,0.012l2.448,0.342a0.6,0.6,0,0,0,.073,0,0.525,0.525,0,0,0,.072-1.045l-1.094-.153A14.886,14.886,0,0,0,68.034,369.066ZM53.011,382.918a13.813,13.813,0,0,1-11.225-5.686l1.017,0.234a0.525,0.525,0,0,0,.234-1.024l-2.3-.527a0.247,0.247,0,0,0-.027,0,0.118,0.118,0,0,0-.018-0.006c-0.012,0-.024,0-0.036,0a0.5,0.5,0,0,0-.139.009,0.469,0.469,0,0,0-.053.011,0.54,0.54,0,0,0-.157.077l-0.007.006a0.506,0.506,0,0,0-.1.107,0.248,0.248,0,0,0-.012.023,0.452,0.452,0,0,0-.026.051,0.493,0.493,0,0,0-.045.13c0,0.011-.009.019-0.011,0.031l-0.341,2.453a0.525,0.525,0,0,0,.447.592,0.6,0.6,0,0,0,.073,0,0.525,0.525,0,0,0,.518-0.452l0.152-1.1a14.845,14.845,0,0,0,12.059,6.112A0.525,0.525,0,0,0,53.011,382.918Zm-8.256-25.293-0.233,1.018a0.524,0.524,0,1,0,1.022.235l0.526-2.3c0-.009,0-0.017,0-0.025s0.005-.013.006-0.02,0-.023,0-0.035a0.519,0.519,0,0,0-.009-0.14,0.474,0.474,0,0,0-.088-0.21l0,0a0.521,0.521,0,0,0-.11-0.109c-0.008,0-.016-0.007-0.024-0.012A0.409,0.409,0,0,0,45.8,356a0.537,0.537,0,0,0-.133-0.047c-0.011,0-.02-0.009-0.031-0.01l-2.448-.342a0.525,0.525,0,0,0-.145,1.04l1.093,0.153a14.883,14.883,0,0,0-6.1,12.079,0.524,0.524,0,1,0,1.048,0A13.848,13.848,0,0,1,44.755,357.625Zm16.6,11.425a8.3,8.3,0,1,1-8.3-8.314A8.316,8.316,0,0,1,61.355,369.05Zm-1.048,0a7.252,7.252,0,1,0-7.252,7.264A7.266,7.266,0,0,0,60.306,369.05Z" transform="translate(-37.031 -352.969)"/>
  
</svg>
