<svg xmlns="http://www.w3.org/2000/svg" width="32" height="32" viewBox="0 0 32 32">
  
  <path class="cls-1" d="M47.571,410.436h3.9A1.446,1.446,0,0,0,52.917,409v-1.7a1.445,1.445,0,0,0-1.446-1.441h-3.9a1.445,1.445,0,0,0-1.446,1.441V409A1.446,1.446,0,0,0,47.571,410.436ZM47.15,407.3a0.42,0.42,0,0,1,.421-0.419h0.45v1.046a0.513,0.513,0,0,0,1.025,0v-1.046H50v1.046a0.513,0.513,0,0,0,1.025,0v-1.046h0.45a0.421,0.421,0,0,1,.421.419V409a0.421,0.421,0,0,1-.421.419h-0.45v-0.17a0.513,0.513,0,0,0-1.025,0v0.17H49.046v-0.17a0.513,0.513,0,0,0-1.025,0v0.17h-0.45A0.42,0.42,0,0,1,47.15,409v-1.7Zm8.246,3.14h3.9A1.446,1.446,0,0,0,60.743,409v-1.7a1.445,1.445,0,0,0-1.446-1.441H55.4A1.445,1.445,0,0,0,53.95,407.3V409A1.446,1.446,0,0,0,55.4,410.436Zm-0.421-3.14a0.42,0.42,0,0,1,.421-0.419h0.45v0.192a0.513,0.513,0,0,0,1.025,0v-0.192h0.949v0.192a0.513,0.513,0,0,0,1.025,0v-0.192H59.3a0.42,0.42,0,0,1,.421.419V409a0.42,0.42,0,0,1-.421.419h-0.45v-0.983a0.513,0.513,0,0,0-1.025,0v0.983H56.872v-0.983a0.513,0.513,0,0,0-1.025,0v0.983H55.4A0.42,0.42,0,0,1,54.975,409v-1.7Zm10.206,7.111H63.226V403.892a0.512,0.512,0,0,0-.513-0.511h-8.4l1.861-3.451a0.512,0.512,0,0,0-.9-0.484l-1.8,3.339-1.886-3.347a0.512,0.512,0,0,0-.894.5l1.939,3.443h-8.48a0.512,0.512,0,0,0-.513.511v10.515H41.763a3.283,3.283,0,0,0-3.285,3.273v9.73a0.513,0.513,0,0,0,1.026,0v-9.73a2.258,2.258,0,0,1,2.259-2.252h1.878v2.055a0.511,0.511,0,0,0,.513.51H62.713a0.511,0.511,0,0,0,.513-0.51v-2.055h1.955a2.258,2.258,0,0,1,2.259,2.252v9.73a0.513,0.513,0,0,0,1.025,0v-9.73A3.282,3.282,0,0,0,65.181,414.407Zm-9.288,2.565H50.974v-4.511h4.919v4.511Zm6.307,0H56.919V411.95a0.512,0.512,0,0,0-.513-0.511H50.461a0.512,0.512,0,0,0-.513.511v5.022H44.667V404.4H62.2v12.569Z" transform="translate(-37.469 -397.531)"/>
  
</svg>
