<svg xmlns="http://www.w3.org/2000/svg" width="32" height="32" viewBox="0 0 32 32">
 
  <path class="cls-1" d="M61.493,518.513v2.3a0.606,0.606,0,0,1-1.213,0v-2.285a7.284,7.284,0,0,0-14.562.026v2.259a0.606,0.606,0,0,1-1.213,0v-2.277A8.5,8.5,0,0,1,61.493,518.513Zm-12.133-1.5a0.607,0.607,0,0,0-.606.606v3.2a0.606,0.606,0,0,0,1.213,0v-3.2A0.607,0.607,0,0,0,49.36,517.008Zm7.28,0a0.607,0.607,0,0,0-.606.606v3.2a0.606,0.606,0,0,0,1.213,0v-3.2A0.607,0.607,0,0,0,56.64,517.008Zm-7.821-12.25A4.181,4.181,0,1,1,53,508.938,4.185,4.185,0,0,1,48.819,504.758Zm1.213,0A2.968,2.968,0,1,0,53,501.79,2.972,2.972,0,0,0,50.032,504.758ZM68,511a15,15,0,1,1-15-15A15.017,15.017,0,0,1,68,511Zm-1.015,0A13.986,13.986,0,1,0,53,524.985,14,14,0,0,0,66.985,511Z" transform="translate(-37 -495)"/>
  
</svg>
