<svg xmlns="http://www.w3.org/2000/svg" width="32" height="30" viewBox="0 0 32 30">
  
  <path class="cls-1" d="M55.446,574.5H49.553a0.5,0.5,0,0,1-.494-0.5v-3.114a11.842,11.842,0,0,1-2.181-.9l-2.2,2.2a0.494,0.494,0,0,1-.7,0l-4.167-4.167a0.493,0.493,0,0,1,0-.7l2.2-2.2a11.831,11.831,0,0,1-.905-2.181H37.992a0.5,0.5,0,0,1-.494-0.5v-5.892a0.494,0.494,0,0,1,.494-0.494h3.115a11.811,11.811,0,0,1,.905-2.182l-2.2-2.2a0.494,0.494,0,0,1,0-.7l4.167-4.167a0.494,0.494,0,0,1,.7,0l2.2,2.2a11.855,11.855,0,0,1,2.181-.906v-3.114a0.494,0.494,0,0,1,.494-0.494h5.893a0.494,0.494,0,0,1,.494.494v3.114a11.836,11.836,0,0,1,2.181.906l2.2-2.2a0.494,0.494,0,0,1,.7,0l4.166,4.167a0.494,0.494,0,0,1,0,.7l-2.2,2.2a11.862,11.862,0,0,1,.905,2.182h3.114a0.494,0.494,0,0,1,.494.494v5.892a0.5,0.5,0,0,1-.494.5H63.892a11.881,11.881,0,0,1-.905,2.181l2.2,2.2a0.493,0.493,0,0,1,0,.7l-4.166,4.167a0.494,0.494,0,0,1-.7,0l-2.2-2.2a11.85,11.85,0,0,1-2.181.9v3.114A0.5,0.5,0,0,1,55.446,574.5Zm-5.4-.989h4.9v-2.993a0.5,0.5,0,0,1,.367-0.478,10.818,10.818,0,0,0,2.641-1.1,0.493,0.493,0,0,1,.6.079l2.118,2.118,3.468-3.468-2.118-2.118a0.494,0.494,0,0,1-.078-0.6,10.862,10.862,0,0,0,1.1-2.641,0.5,0.5,0,0,1,.478-0.367h2.993v-4.9H63.519a0.494,0.494,0,0,1-.478-0.367,10.839,10.839,0,0,0-1.1-2.64,0.5,0.5,0,0,1,.078-0.6l2.118-2.118-3.468-3.468-2.118,2.119a0.493,0.493,0,0,1-.6.078,10.876,10.876,0,0,0-2.64-1.1,0.5,0.5,0,0,1-.367-0.478v-2.993h-4.9v2.993a0.5,0.5,0,0,1-.367.478,10.884,10.884,0,0,0-2.641,1.1,0.494,0.494,0,0,1-.6-0.078l-2.118-2.119-3.468,3.468,2.118,2.118a0.5,0.5,0,0,1,.078.6,10.842,10.842,0,0,0-1.1,2.64,0.494,0.494,0,0,1-.478.367H38.486v4.9H41.48a0.5,0.5,0,0,1,.478.367,10.85,10.85,0,0,0,1.1,2.641,0.494,0.494,0,0,1-.078.6l-2.118,2.118,3.468,3.468,2.118-2.118a0.494,0.494,0,0,1,.6-0.079,10.806,10.806,0,0,0,2.641,1.1,0.5,0.5,0,0,1,.367.478v2.993ZM61.692,559.5A9.133,9.133,0,0,0,59,553a0.494,0.494,0,0,0-.7.7,8.2,8.2,0,1,1-5.8-2.4,0.495,0.495,0,0,0,0-.989A9.193,9.193,0,1,0,61.692,559.5Z" transform="translate(-36.5 -544.5)"/>
  
</svg>
