<svg xmlns="http://www.w3.org/2000/svg" width="32" height="30.031" viewBox="0 0 32 30.031">
  
  <path class="cls-1" d="M44,653.834a9.287,9.287,0,0,1,15.96-6.335l-0.725.716a8.26,8.26,0,0,0-14.225,5.619,8.084,8.084,0,0,0,2.575,5.9l-0.724.716A9.085,9.085,0,0,1,44,653.834Zm0.613-7.109a0.51,0.51,0,0,0,.714,0,0.5,0.5,0,0,0,0-.707l-2.691-2.646a0.509,0.509,0,0,0-.714,0,0.5,0.5,0,0,0,0,.707Zm11.446-2.77a0.512,0.512,0,0,0,.167.028,0.505,0.505,0,0,0,.477-0.335l1.039-2.937a0.5,0.5,0,0,0-.31-0.637,0.508,0.508,0,0,0-.644.307l-1.039,2.937A0.5,0.5,0,0,0,56.06,643.955Zm9.877,1.313a0.51,0.51,0,0,0-.715,0L43.643,666.6a0.5,0.5,0,0,0,0,.706,0.511,0.511,0,0,0,.715,0l21.578-21.334A0.5,0.5,0,0,0,65.936,645.268ZM67.1,667.25a6.5,6.5,0,0,1,0-12.945,0.525,0.525,0,0,0,.454-0.382,0.519,0.519,0,0,0-.192-0.559,9.358,9.358,0,0,0-4.167-1.755l-0.966.956a8.356,8.356,0,0,1,2.27.449l1.155,0.406-1.109.517a7.533,7.533,0,0,0,0,13.68l1.109,0.517-1.155.406a8.384,8.384,0,0,1-2.789.472,8.292,8.292,0,0,1-8.3-7.725l-0.96.949a9.416,9.416,0,0,0,14.916,5.954,0.518,0.518,0,0,0,.192-0.558A0.525,0.525,0,0,0,67.1,667.25ZM42.752,656.875l-2.988.979a0.5,0.5,0,0,0-.321.631,0.5,0.5,0,0,0,.48.342,0.52,0.52,0,0,0,.159-0.025l2.988-.978a0.5,0.5,0,0,0,.321-0.631A0.506,0.506,0,0,0,42.752,656.875Z" transform="translate(-37.5 -640.031)"/>
</svg>
