
<svg xmlns="http://www.w3.org/2000/svg" xml:space="preserve" width="239px" height="239px" viewBox="0 0 2936000 2936000" >
   <path fill="#3A2C61" fill-rule="nonzero" d="M1840000 2067000c-61000,52000 -132000,87000 -210000,106000 -26000,6000 -33000,17000 -31000,42000 2000,28000 0,56000 0,84000l-261000 0c0,-36000 12000,-81000 -4000,-108000 -15000,-24000 -62000,-27000 -94000,-41000 -124000,-54000 -214000,-140000 -258000,-269000 -2000,-4000 -2000,-8000 -4000,-16000 83000,-23000 165000,-47000 247000,-70000 74000,175000 339000,170000 453000,68000 15000,-12000 28000,-28000 37000,-45000 26000,-44000 22000,-87000 -22000,-114000 -51000,-32000 -108000,-60000 -166000,-80000 -67000,-24000 -140000,-32000 -207000,-56000 -71000,-25000 -144000,-53000 -207000,-94000 -198000,-131000 -225000,-390000 -63000,-565000 72000,-77000 160000,-125000 261000,-152000 9000,-3000 17000,-5000 27000,-8000l0 -115000 261000 0c0,27000 2000,55000 0,83000 -2000,24000 5000,34000 31000,42000 155000,45000 270000,135000 325000,292000 2000,4000 2000,8000 4000,15000 -83000,24000 -165000,47000 -246000,70000 -76000,-174000 -337000,-168000 -452000,-70000 -78000,66000 -74000,161000 19000,206000 72000,34000 152000,55000 231000,76000 109000,29000 217000,62000 312000,126000 83000,55000 145000,126000 162000,227000 26000,150000 -32000,269000 -145000,366000zm-296000 -1879000l-152000 0c-672000,39000 -1204000,595000 -1205000,1276000l0 5000c1000,706000 574000,1279000 1281000,1279000 707000,0 1281000,-574000 1281000,-1281000 0,-682000 -533000,-1240000 -1205000,-1279000z"/>
   <rect fill="none" width="2936000" height="2936000"/>
   
</svg>
