
<svg xmlns="http://www.w3.org/2000/svg" xml:space="preserve" width="239px" height="239px" viewBox="0 0 3892000 3892000" >

  <path fill="#3A2C61" fill-rule="nonzero" d="M3073000 2527000c-1000,16000 -12000,38000 -25000,46000 -152000,95000 -304000,188000 -463000,285000 -2000,-20000 -5000,-35000 -5000,-49000 0,-123000 -1000,-245000 1000,-367000 0,-18000 6000,-43000 18000,-50000 160000,-98000 322000,-193000 492000,-294000 -6000,150000 -11000,289000 -18000,429000zm-1026000 -2278000l-202000 0c-891000,52000 -1598000,791000 -1598000,1695000 0,938000 761000,1699000 1699000,1699000 938000,0 1698000,-761000 1698000,-1699000 0,-904000 -706000,-1643000 -1597000,-1695000zm293000 1966000c-110000,-62000 -219000,-125000 -335000,-191000 101000,-59000 196000,-114000 292000,-169000 66000,-38000 132000,-77000 199000,-113000 15000,-9000 40000,-13000 52000,-6000 165000,93000 329000,189000 500000,288000 -109000,65000 -212000,126000 -316000,188000 -65000,38000 -131000,104000 -198000,105000 -64000,2000 -130000,-65000 -194000,-102000zm157000 645000c-106000,-60000 -204000,-117000 -301000,-173000 -65000,-37000 -130000,-74000 -193000,-113000 -13000,-8000 -29000,-24000 -29000,-37000 -2000,-143000 -1000,-286000 -1000,-439000 102000,59000 196000,114000 291000,168000 67000,39000 135000,78000 202000,118000 13000,8000 29000,25000 29000,38000 2000,143000 2000,286000 2000,438000zm-534000 -1337000c0,-14000 9000,-33000 19000,-39000 161000,-97000 322000,-192000 492000,-293000 -6000,155000 -12000,301000 -19000,447000 0,9000 -9000,20000 -17000,25000 -155000,95000 -311000,190000 -476000,291000 0,-151000 -1000,-291000 1000,-431000zm-131000 -150000c-143000,-89000 -292000,-169000 -445000,-256000 172000,-99000 334000,-193000 498000,-286000 12000,-7000 33000,-11000 43000,-5000 166000,95000 331000,191000 503000,291000 -146000,86000 -288000,166000 -425000,254000 -63000,42000 -110000,42000 -174000,2000zm58000 1184000c-27000,48000 -103000,69000 -157000,102000 -112000,66000 -223000,131000 -345000,202000 0,-152000 0,-294000 1000,-435000 0,-12000 9000,-28000 19000,-34000 160000,-97000 321000,-192000 493000,-294000 0,95000 1000,181000 0,266000 -1000,66000 17000,142000 -11000,193000zm-533000 -1366000c113000,66000 220000,128000 327000,189000 55000,32000 111000,63000 165000,98000 14000,9000 28000,29000 28000,44000 3000,140000 2000,280000 2000,427000 -18000,-9000 -30000,-14000 -42000,-21000 -141000,-84000 -282000,-170000 -425000,-253000 -27000,-16000 -38000,-34000 -39000,-67000 -3000,-136000 -10000,-272000 -16000,-417000zm-29000 1125000c-169000,-95000 -338000,-192000 -514000,-292000 172000,-99000 337000,-195000 504000,-289000 11000,-7000 34000,-3000 47000,4000 163000,93000 326000,188000 493000,285000 -168000,100000 -332000,197000 -497000,294000 -8000,5000 -24000,3000 -33000,-2000zm-20000 224000c-9000,98000 -2000,198000 -2000,298000 0,3000 -2000,6000 -7000,18000 -161000,-96000 -319000,-191000 -476000,-286000 -11000,-6000 -21000,-22000 -21000,-33000 -2000,-143000 -1000,-286000 -1000,-429000 124000,72000 252000,156000 388000,222000 95000,46000 130000,106000 119000,210000z"/>
  <rect fill="none" width="3892000" height="3892000"/>

</svg>
