<svg xmlns="http://www.w3.org/2000/svg" xml:space="preserve" width="239px" height="239px" 
viewBox="0 0 5771000 5771000">
 
  <path fill="#3A2C61" fill-rule="nonzero" d="M4146000 4118000c0,23000 -1000,47000 -4000,70000 -17000,116000 -93000,181000 -209000,181000l-1493000 0c-207000,0 -414000,-1000 -621000,0 -67000,0 -116000,-28000 -152000,-83000 -34000,-50000 -43000,-107000 -43000,-165000 0,-486000 0,-971000 1000,-1457000 0,-32000 4000,-64000 11000,-95000 24000,-99000 92000,-151000 194000,-151000l37000 0 0 -38000c0,-82000 -3000,-164000 1000,-246000 4000,-80000 7000,-161000 26000,-238000 109000,-426000 376000,-693000 811000,-785000 34000,-8000 69000,-11000 104000,-16000l153000 0c57000,10000 114000,16000 170000,29000 217000,54000 397000,169000 538000,342000 136000,167000 215000,357000 228000,572000 7000,114000 4000,228000 6000,342000 0,11000 0,23000 0,38000 21000,0 39000,0 57000,0 60000,-1000 105000,28000 140000,76000 36000,52000 46000,111000 46000,173000 0,483000 0,967000 -1000,1451000zm-865000 -2447000c-172000,-151000 -372000,-195000 -588000,-119000 -224000,79000 -362000,243000 -394000,479000 -17000,125000 -7000,253000 -8000,380000l4000 5000 1185000 0 2000 -23000c0,-93000 1000,-186000 -1000,-278000 -3000,-177000 -68000,-327000 -200000,-444000zm-486000 1266000c-188000,57000 -251000,283000 -128000,436000 9000,11000 14000,28000 15000,43000 1000,69000 0,138000 0,207000 0,70000 0,141000 1000,211000 1000,67000 40000,105000 106000,106000 61000,0 122000,0 183000,0 80000,0 117000,-37000 117000,-118000 0,-128000 0,-256000 -1000,-383000 0,-31000 5000,-57000 27000,-82000 15000,-16000 26000,-39000 33000,-61000 39000,-107000 20000,-207000 -58000,-290000 -82000,-86000 -187000,-101000 -295000,-69000zm240000 -2568000l-299000 0c-1321000,77000 -2369000,1173000 -2369000,2514000 0,1391000 1127000,2519000 2518000,2519000 1392000,0 2519000,-1128000 2519000,-2519000 0,-1341000 -1048000,-2437000 -2369000,-2514000z"/>
  <rect fill="none" width="5771000" height="5771000"/>
  
</svg>
