
<svg xmlns="http://www.w3.org/2000/svg" xml:space="preserve" width="239px" height="239px" 
viewBox="0 0 2936000 2936000">

  <path fill="#3A2C61" fill-rule="nonzero" d="M933000 2427000c2000,80000 -26000,109000 -109000,109000 -313000,4000 -315000,7000 -339000,-298000 -23000,-291000 -38000,-582000 -59000,-873000 -1000,-7000 -1000,-13000 -1000,-18000l0 -4000c0,-65000 31000,-97000 106000,-95000 91000,2000 182000,4000 273000,0 91000,-5000 129000,35000 128000,125000 -3000,178000 -1000,355000 -1000,533000l2000 0c0,174000 -3000,347000 0,521000zm1570000 -997000c-70000,331000 -157000,659000 -244000,987000 -21000,81000 -80000,123000 -178000,120000 -257000,-7000 -514000,-1000 -771000,-3000 -178000,0 -233000,-58000 -234000,-235000 0,-313000 2000,-625000 -1000,-938000 -1000,-76000 19000,-131000 79000,-184000 194000,-173000 331000,-378000 352000,-650000 4000,-47000 53000,-125000 87000,-128000 3000,0 7000,0 10000,-1000l8000 0c54000,2000 121000,28000 154000,66000 115000,133000 110000,299000 93000,463000 -11000,102000 -36000,202000 -58000,321000 182000,0 356000,-1000 529000,0 125000,1000 183000,28000 182000,118000 0,19000 -3000,40000 -8000,64000z"/>
  <rect fill="none" width="2936000" height="2936000"/>

</svg>
