<svg xmlns="http://www.w3.org/2000/svg" xml:space="preserve" width="239px" height="239px" viewBox="0 0 3892000 3892000">

  <path fill="#3A2C61" fill-rule="nonzero" d="M2223000 2707000c-44000,-23000 -45000,-60000 -5000,-97000 99000,-90000 338000,-89000 432000,4000 36000,35000 36000,69000 -4000,90000 -67000,35000 -132000,53000 -213000,53000 -82000,0 -146000,-16000 -210000,-50000zm-974000 -23000c-44000,-24000 -43000,-61000 -3000,-98000 98000,-91000 338000,-89000 432000,4000 35000,35000 35000,70000 -5000,91000 -67000,34000 -133000,52000 -215000,52000 -81000,0 -145000,-15000 -209000,-49000zm-277000 85000c13000,131000 101000,231000 214000,300000 94000,56000 188000,85000 282000,85000 100000,1000 200000,-30000 297000,-92000 127000,-80000 246000,-85000 370000,0 29000,19000 60000,34000 92000,48000 312000,133000 673000,-59000 714000,-390000 18000,-144000 3000,-292000 3000,-445000 -662000,90000 -1321000,90000 -1976000,1000 0,168000 -13000,332000 4000,493000zm991000 -565000c-431000,-5000 -848000,-24000 -1257000,-125000 -96000,-24000 -192000,-61000 -280000,-107000 -53000,-28000 -80000,-65000 -81000,-101000 0,-36000 26000,-70000 81000,-92000 166000,-67000 342000,-113000 517000,-157000 57000,-15000 77000,-36000 93000,-90000 68000,-213000 137000,-427000 217000,-636000 51000,-133000 154000,-180000 293000,-149000 56000,12000 111000,30000 164000,53000 159000,70000 317000,73000 477000,3000 55000,-25000 113000,-44000 172000,-57000 25000,-6000 50000,-8000 73000,-8000 101000,-1000 179000,52000 219000,159000 79000,210000 149000,423000 216000,637000 17000,55000 37000,78000 95000,87000 119000,21000 236000,52000 353000,82000 44000,12000 91000,27000 126000,53000 44000,33000 100000,77000 105000,121000l0 4000c0,34000 -58000,87000 -100000,108000 -79000,40000 -165000,70000 -251000,91000 -409000,100000 -826000,118000 -1232000,124000z"/>
  <rect fill="none" width="3892000" height="3892000"/>

</svg>
