<svg xmlns="http://www.w3.org/2000/svg" xml:space="preserve" width="239px" height="239px" viewBox="0 0 5771000 5771000" >

  <path fill="#3A2C61" fill-rule="nonzero" d="M950000 946000c47000,43000 74000,66000 100000,90000 460000,452000 921000,903000 1378000,1358000 39000,40000 69000,109000 69000,165000 4000,709000 3000,1418000 3000,2128000l0 138000c250000,-125000 480000,-243000 714000,-353000 69000,-33000 89000,-74000 89000,-147000 -3000,-588000 -3000,-1176000 1000,-1764000 1000,-56000 29000,-126000 68000,-165000 317000,-318000 640000,-630000 959000,-946000 166000,-164000 326000,-334000 490000,-504000l-3871000 0z"/>
  <rect fill="none" width="5771000" height="5771000"/>

</svg>
