<svg xmlns="http://www.w3.org/2000/svg" xml:space="preserve" width="239px" height="239px" 
viewBox="0 0 11161000 11161000">
 
  <path fill="#3A2C61" fill-rule="nonzero" d="M9234000 7773000c-42000,-21000 -58000,-117000 -60000,-179000 -10000,-339000 7000,-680000 -20000,-1017000 -66000,-854000 -672000,-1412000 -1530000,-1427000 -339000,-6000 -679000,6000 -1017000,-7000 -128000,-6000 -277000,-27000 -375000,-97000 -99000,-72000 -201000,-211000 -208000,-326000 -26000,-401000 -14000,-804000 -8000,-1206000 1000,-49000 42000,-117000 85000,-143000 418000,-257000 618000,-632000 545000,-1112000 -74000,-488000 -378000,-793000 -867000,-902000l-29000 -22000 -339000 0c-35000,12000 -68000,27000 -103000,38000 -447000,132000 -726000,429000 -794000,885000 -67000,448000 99000,820000 487000,1065000 120000,76000 155000,152000 151000,285000 -9000,320000 -3000,641000 -3000,961000 -1000,382000 -168000,562000 -558000,574000 -345000,11000 -691000,2000 -1037000,6000 -797000,10000 -1385000,466000 -1523000,1242000 -65000,367000 -38000,752000 -37000,1128000 0,152000 -29000,249000 -175000,330000 -281000,156000 -400000,436000 -484000,732000l0 339000c95000,317000 245000,597000 550000,758000 113000,60000 237000,99000 356000,148000l339000 0c211000,-116000 461000,-192000 625000,-355000 480000,-481000 364000,-1285000 -218000,-1642000 -115000,-70000 -148000,-143000 -144000,-268000 8000,-283000 -1000,-566000 4000,-849000 6000,-449000 257000,-692000 708000,-700000 408000,-8000 816000,-16000 1225000,-33000 117000,-5000 232000,-41000 369000,-67000l0 884000c0,176000 -8000,353000 2000,528000 14000,250000 -10000,440000 -265000,609000 -338000,223000 -441000,605000 -367000,1006000 78000,416000 334000,693000 735000,833000 52000,19000 105000,36000 157000,54000l339000 0c41000,-14000 81000,-29000 121000,-42000 437000,-138000 709000,-433000 776000,-882000 66000,-440000 -93000,-812000 -473000,-1054000 -134000,-86000 -167000,-172000 -165000,-316000 8000,-478000 3000,-955000 3000,-1434000l0 -130000c524000,15000 1030000,35000 1536000,43000 528000,8000 765000,242000 767000,777000 1000,276000 6000,553000 -4000,830000 -2000,60000 -44000,143000 -94000,174000 -424000,266000 -618000,647000 -535000,1135000 80000,472000 377000,767000 850000,873000l49000 26000 340000 0c324000,-95000 605000,-254000 768000,-565000 56000,-108000 92000,-227000 137000,-341000l0 -339000c-94000,-345000 -260000,-634000 -592000,-808000z"/>
  <rect fill="none" width="11161000" height="11161000"/>

</svg>
