<svg xmlns="http://www.w3.org/2000/svg" xml:space="preserve" width="239px" height="239px" 
viewBox="0 0 169046000 169046000">

  <path fill="#3A2C61" fill-rule="nonzero" d="M41242000 151215000c5122000,-15915000 9944000,-30897000 14754000,-45883000 1517000,-4719000 1535000,-4775000 -2561000,-7792000 -11852000,-8733000 -23738000,-17419000 -35613000,-26125000 -828000,-606000 -1643000,-1228000 -3129000,-2341000 1727000,-112000 2776000,-233000 3818000,-237000 15460000,-85000 30929000,-215000 46385000,-155000 2440000,6000 3422000,-792000 4135000,-3026000 4989000,-15707000 10114000,-31376000 15440000,-47828000 886000,2463000 1569000,4237000 2160000,6047000 4576000,13976000 9204000,27946000 13644000,41973000 704000,2225000 1700000,2821000 3920000,2815000 15674000,-14000 31345000,107000 47013000,192000 820000,4000 1645000,70000 3144000,135000 -1113000,941000 -1743000,1526000 -2431000,2029000 -12532000,9214000 -25044000,18449000 -37642000,27592000 -1965000,1424000 -2500000,2705000 -1680000,5163000 4874000,14654000 9539000,29369000 14263000,44067000 246000,777000 433000,1573000 889000,3225000 -1996000,-1392000 -3388000,-2328000 -4743000,-3309000 -11842000,-8557000 -23738000,-17062000 -35497000,-25739000 -2047000,-1518000 -3398000,-1555000 -5427000,-84000 -12495000,9082000 -25080000,18049000 -37643000,27051000 -834000,596000 -1690000,1178000 -3199000,2230000z"/>
  <rect fill="none" width="169046000" height="169046000"/>

</svg>
