<svg xmlns="http://www.w3.org/2000/svg" xml:space="preserve" width="239px" height="239px" 
viewBox="0 0 12859000 12859000">

  <path fill="#3A2C61" fill-rule="nonzero" d="M3707000 1582000c163000,42000 330000,70000 482000,148000 504000,259000 764000,676000 803000,1236000 9000,126000 13000,253000 -31000,375000 -20000,53000 22000,64000 54000,82000 643000,372000 1287000,743000 1930000,1115000 464000,268000 928000,536000 1391000,806000 46000,27000 77000,31000 123000,-7000 489000,-406000 1034000,-454000 1591000,-189000 530000,252000 750000,717000 738000,1290000 -12000,575000 -272000,1017000 -790000,1271000 -518000,253000 -1032000,218000 -1511000,-122000 -142000,-100000 -141000,-104000 -291000,-15000 -1076000,637000 -2153000,1273000 -3230000,1911000 -30000,18000 -69000,26000 -55000,89000 145000,679000 -220000,1357000 -861000,1607000 -927000,360000 -1938000,-324000 -1926000,-1319000 8000,-591000 291000,-1037000 833000,-1279000 534000,-238000 1046000,-165000 1500000,216000 43000,35000 69000,35000 114000,8000 1113000,-660000 2227000,-1319000 3342000,-1977000 45000,-27000 46000,-50000 36000,-97000 -41000,-180000 -42000,-363000 -3000,-543000 14000,-60000 6000,-86000 -47000,-117000 -482000,-275000 -961000,-553000 -1441000,-831000 -628000,-362000 -1255000,-723000 -1882000,-1087000 -48000,-28000 -76000,-29000 -122000,9000 -834000,714000 -2138000,261000 -2352000,-816000 -20000,-100000 -30000,-199000 -31000,-296000l0 -31000c7000,-698000 489000,-1283000 1219000,-1417000l38000 -20000 379000 0z"/>
  <rect fill="none" width="12859000" height="12859000"/>
  
</svg>
