<svg xmlns="http://www.w3.org/2000/svg" xml:space="preserve" width="239px" height="239px" 
viewBox="0 0 4079000 4079000">
 
  <path fill="#3A2C61" fill-rule="nonzero" d="M1511000 571000l835000 0c0,161000 0,322000 1000,483000 1000,144000 101000,263000 244000,275000 126000,11000 252000,6000 378000,7000 78000,0 156000,0 241000,0l0 77000c0,457000 0,914000 0,1370000 0,162000 -72000,233000 -236000,233000 -461000,0 -922000,0 -1383000,0 -170000,0 -238000,-68000 -238000,-236000 0,-657000 0,-1314000 0,-1971000 0,-137000 31000,-184000 158000,-238000zm1379000 601000c-84000,0 -169000,1000 -253000,0 -84000,-1000 -125000,-40000 -125000,-124000 -2000,-134000 0,-269000 -2000,-403000 0,-52000 21000,-76000 71000,-62000 38000,11000 79000,25000 110000,49000 153000,121000 303000,246000 453000,370000 18000,15000 35000,34000 46000,54000 44000,79000 23000,116000 -65000,116000l-235000 0zm-1876000 2336000c-110000,-47000 -147000,-130000 -147000,-247000l0 -6000c4000,-670000 2000,-1340000 2000,-2009000 0,-232000 71000,-297000 316000,-276000l0 74000c0,637000 0,1274000 0,1911000 0,156000 79000,237000 237000,237000 437000,0 874000,0 1311000,0l77000 0c42000,149000 2000,240000 -137000,316000l-1659000 0z"/>
  <rect fill="none" width="4079000" height="4079000"/>

</svg>
