<svg xmlns="http://www.w3.org/2000/svg" xml:space="preserve" width="239px" height="239px" 
viewBox="0 0 3041000 3041000">
 
  <path fill="#3A2C61" fill-rule="nonzero" d="M2027000 1510000l310000 0c-19000,-306000 -148000,-533000 -396000,-686000 -307000,-188000 -594000,-154000 -1007000,112000 -65000,-69000 -130000,-138000 -206000,-218000 294000,-274000 643000,-390000 1037000,-293000 552000,135000 833000,516000 891000,1085000l301000 0c-164000,212000 -310000,401000 -465000,601000 -153000,-198000 -299000,-386000 -465000,-601000zm-1644000 24000l-298000 0c160000,-208000 306000,-397000 462000,-599000 153000,198000 300000,388000 461000,597000l-288000 0c-41000,236000 132000,543000 382000,693000 313000,187000 653000,149000 987000,-110000 67000,71000 134000,142000 204000,216000 -174000,243000 -654000,384000 -1041000,290000 -486000,-118000 -784000,-486000 -869000,-1087000z"/>
  <rect fill="none" width="3041000" height="3041000"/>

</svg>
