<svg xmlns="http://www.w3.org/2000/svg" xml:space="preserve" width="239px" height="239px" 
viewBox="0 0 2936000 2936000">
 
  <path fill="#3A2C61" fill-rule="nonzero" d="M1206000 1943000c1000,38000 32000,70000 68000,70000 38000,-1000 70000,-34000 70000,-71000 -1000,-40000 -32000,-69000 -73000,-68000 -37000,0 -65000,31000 -65000,69000zm-513000 -712000c47000,50000 94000,98000 141000,147000 -7000,6000 -15000,12000 -24000,19000 -172000,141000 -278000,321000 -311000,543000 -5000,37000 -5000,37000 -43000,37000 -40000,0 -79000,0 -119000,0l-17000 0c31000,-295000 156000,-541000 373000,-746000zm715000 -298000l0 289000c-19000,0 -38000,0 -56000,1000 -55000,2000 -110000,0 -164000,8000 -84000,12000 -164000,39000 -240000,79000 -4000,2000 -13000,1000 -16000,-1000 -49000,-49000 -98000,-99000 -148000,-148000l-1000 -3000c186000,-136000 394000,-211000 625000,-225000zm1208000 1044000c-62000,0 -120000,0 -179000,0 -86000,-1000 -173000,-2000 -260000,-2000 -13000,0 -17000,-4000 -19000,-16000 -17000,-125000 -55000,-243000 -124000,-349000 -19000,-30000 -41000,-57000 -61000,-85000 -3000,-5000 -6000,-9000 -4000,-10000 91000,-94000 182000,-188000 275000,-283000 215000,204000 340000,449000 372000,745000zm-867000 -643000c-18000,-10000 -31000,-18000 -45000,-24000 -54000,-22000 -108000,-44000 -162000,-64000 -11000,-4000 -16000,-8000 -16000,-21000 1000,-92000 0,-184000 0,-275000l0 -19000c47000,6000 91000,10000 135000,17000 125000,20000 242000,63000 354000,121000 22000,12000 22000,11000 40000,-5000 72000,-64000 144000,-128000 217000,-191000 12000,-11000 25000,-16000 38000,-16000l1000 0c20000,0 38000,15000 47000,41000 5000,15000 -1000,27000 -10000,38000 -42000,48000 -83000,97000 -126000,145000 -273000,306000 -545000,611000 -818000,917000 -14000,16000 -28000,31000 -43000,47000 -24000,24000 -53000,33000 -84000,34000l-2000 0c-6000,0 -12000,-1000 -18000,-1000 -32000,-3000 -59000,-20000 -82000,-43000 -23000,-23000 -32000,-49000 -35000,-82000 -3000,-45000 12000,-79000 44000,-108000 71000,-65000 141000,-130000 212000,-194000 111000,-101000 223000,-201000 334000,-301000 5000,-5000 11000,-9000 19000,-16000z"/>
  <rect fill="none" width="2936000" height="2936000"/>

</svg>
