<svg xmlns="http://www.w3.org/2000/svg" xml:space="preserve" width="239px" height="239px" 
viewBox="0 0 3892000 3892000">
 
  <path fill="#3A2C61" fill-rule="nonzero" d="M1748000 1920000c19000,59000 47000,106000 88000,146000 122000,120000 328000,122000 450000,2000 160000,-159000 321000,-317000 478000,-479000 90000,-93000 114000,-208000 71000,-330000 -42000,-121000 -130000,-195000 -257000,-216000 -113000,-19000 -209000,17000 -289000,96000 -50000,49000 -98000,99000 -147000,147000l-25000 8000c-131000,-47000 -264000,-61000 -405000,-41000l7000 -11000c119000,-118000 234000,-241000 357000,-354000 132000,-122000 281000,-183000 441000,-182000 73000,0 148000,14000 225000,40000 244000,84000 391000,263000 433000,517000 36000,220000 -31000,413000 -188000,572000 -157000,158000 -315000,316000 -474000,472000 -248000,245000 -670000,239000 -915000,-13000 -34000,-35000 -60000,-77000 -91000,-115000 -9000,-12000 -9000,-21000 3000,-32000 66000,-65000 131000,-131000 197000,-195000 11000,-12000 25000,-20000 41000,-32000zm397000 51000c-4000,-10000 -7000,-16000 -9000,-22000 -81000,-219000 -356000,-288000 -526000,-128000 -127000,119000 -247000,244000 -370000,367000 -34000,34000 -69000,68000 -103000,103000 -132000,135000 -133000,339000 -3000,468000 130000,129000 333000,127000 467000,-5000 50000,-49000 99000,-99000 150000,-148000 6000,-6000 20000,-10000 27000,-7000 129000,45000 260000,59000 394000,40000l7000 1000 -6000 9000c-119000,119000 -235000,241000 -358000,355000 -129000,119000 -274000,180000 -430000,182000l-12000 0c-69000,-1000 -141000,-13000 -215000,-37000 -242000,-80000 -391000,-254000 -438000,-506000 -9000,-45000 -13000,-89000 -13000,-132000 1000,-168000 66000,-318000 191000,-447000 159000,-163000 319000,-326000 485000,-483000 297000,-281000 782000,-218000 998000,125000 11000,19000 11000,29000 -5000,45000 -66000,63000 -129000,127000 -194000,191000 -10000,10000 -24000,18000 -37000,29000z"/>
  <rect fill="none" width="3892000" height="3892000"/>

</svg>
