<svg xmlns="http://www.w3.org/2000/svg" xml:space="preserve" width="239px" height="239px" 
viewBox="0 0 5771000 5771000">

  <path fill="#3A2C61" fill-rule="nonzero" d="M2180000 2733000c-95000,108000 -188000,214000 -282000,319000 -182000,205000 -366000,410000 -547000,617000 -20000,24000 -44000,80000 -40000,82000 39000,28000 61000,-13000 85000,-33000 320000,-269000 639000,-538000 958000,-808000 14000,-12000 29000,-24000 44000,-36000 88000,55000 171000,112000 259000,162000 159000,90000 322000,89000 481000,-2000 86000,-48000 168000,-104000 256000,-160000 75000,62000 151000,126000 226000,189000 259000,219000 518000,439000 778000,656000 23000,19000 56000,25000 84000,37000 -12000,-28000 -19000,-60000 -38000,-82000 -265000,-300000 -531000,-599000 -797000,-899000 -11000,-13000 -23000,-26000 -35000,-41000 10000,-8000 19000,-16000 28000,-23000 409000,-277000 818000,-555000 1227000,-832000 38000,-26000 78000,-52000 120000,-73000 51000,-25000 70000,-11000 70000,46000l1000 141000 0 20000 0 405000 0 81000 0 345000 0 759000 0 138000 0 230000c0,141000 -110000,251000 -251000,251000 -1274000,0 -2548000,0 -3822000,0 -156000,0 -272000,-116000 -272000,-272000 0,-683000 0,-1365000 1000,-2047000 0,-34000 14000,-69000 21000,-103000 37000,11000 79000,14000 109000,34000 297000,198000 592000,399000 887000,598000 134000,91000 269000,180000 404000,269000 14000,10000 28000,20000 45000,32000zm717000 -1184000l951000 0 1012000 0 22000 0 10000 0c17000,0 34000,0 51000,3000 78000,10000 103000,68000 52000,129000 -22000,27000 -54000,50000 -85000,67000 -598000,326000 -1196000,653000 -1796000,975000 -145000,77000 -301000,73000 -446000,-5000 -591000,-319000 -1180000,-640000 -1769000,-961000 -36000,-20000 -73000,-43000 -100000,-73000 -54000,-60000 -28000,-122000 51000,-133000 15000,-2000 30000,-2000 46000,-2000l2000 0 12000 0 4000 0 20000 0 1012000 0 951000 0z"/>
  <rect fill="none" width="5771000" height="5771000"/>

</svg>
