<svg xmlns="http://www.w3.org/2000/svg" xml:space="preserve" width="239px" height="239px" 
viewBox="0 0 11161000 11161000">
 
  <path fill="#3A2C61" fill-rule="nonzero" d="M6094000 2658000l0 467000 1591000 0c-1040000,1041000 -2049000,2049000 -3053000,3052000 119000,123000 227000,234000 368000,379000 1011000,-1011000 2021000,-2021000 3040000,-3041000l0 1552000 464000 0 0 -2409000 -2410000 0zm1443000 2621000c1000,723000 2000,1446000 0,2169000 -1000,653000 -408000,1055000 -1065000,1055000l-600000 0 -214000 0 -1113000 0 -215000 0 -599000 0c-665000,0 -1073000,-406000 -1073000,-1067000 -1000,-920000 -1000,-1839000 0,-2759000 0,-645000 405000,-1052000 1048000,-1054000 769000,-1000 1538000,0 2307000,0l36000 48000c-143000,133000 -282000,269000 -430000,394000 -38000,32000 -106000,36000 -161000,36000 -578000,2000 -1157000,1000 -1735000,2000 -391000,0 -581000,193000 -582000,587000 0,920000 0,1839000 1000,2759000 0,372000 195000,570000 562000,570000 932000,1000 1863000,1000 2794000,0 357000,0 559000,-201000 560000,-557000 1000,-567000 5000,-1134000 -3000,-1700000 -2000,-140000 35000,-240000 140000,-331000 108000,-93000 202000,-204000 330000,-335000 6000,88000 12000,136000 12000,183000z"/>
  <rect fill="none" width="11161000" height="11161000"/>

</svg>
